<svg xmlns="http://www.w3.org/2000/svg" viewBox="0 0 484.39 255.52"><defs><style>.cls-1{fill:#1a1d2d;}.cls-2{fill:#fcfdfc;}.cls-3{fill:#fbfcfb;}.cls-4{fill:#16192a;}.cls-5{fill:#281f2e;}.cls-6{fill:#344783;}.cls-7{fill:#39387a;}.cls-8{fill:#3c3c7e;}.cls-9{fill:#17192a;}.cls-10{fill:#171a2f;}.cls-11{fill:#30367b;}.cls-12{fill:#314180;}.cls-13{fill:#fdfefe;}.cls-14{fill:#d72b2d;}.cls-15{fill:#fafbfb;}</style></defs><title>Asset 6@</title><g id="Layer_2" data-name="Layer 2"><g id="Layer_1-2" data-name="Layer 1"><path class="cls-1" d="M201.33,85.76c11.88,0,22.86-.23,33.82.1,5.11.16,7.75-1.6,9.59-6.42a119.38,119.38,0,0,1,26.18-41c58.43-60.3,155.2-47.88,196.64,25.19,37.92,66.86,9.26,153-60.66,182.39-60.33,25.34-130-1.69-158.58-61.56-1.84-3.83-3.6-7.7-6.13-13.13-1.9,4.16-3.12,7-4.47,9.78-22.19,45.42-58,71.94-108.86,74.09-57.09,2.42-106.39-34.4-123.12-89.4C-15.9,94.65,25.64,20.54,96.88,3.23,144.56-8.35,197.22,12,225.24,52.46c2.79,4,3.27,6.52-.81,9.89-6.42,5.29-12.38,11.14-18.5,16.8C204.28,80.67,202.2,81.9,201.33,85.76Z"/><path class="cls-2" d="M358.26,11.13C417.34,11,467,56.3,472.67,114.15c3.56,36.21-6.33,68-31.18,94.52C395.07,258.22,317.58,256.11,274,204c-57.9-69.18-20.87-174.36,65.63-191.17C346.21,11.58,352.85,11.54,358.26,11.13Z"/><path class="cls-3" d="M216.51,56.72,177,93c2.86,2.08,5.56,1.36,8,1.37,13.33.09,26.66,0,40,.06,9,.06,11.75,2.3,13.35,11.32,6.9,39-2.51,73.54-29.56,102.46C175.92,243.28,126.28,253.44,83.21,235c-43.72-18.78-71.74-63.22-69.64-110.49C16,69.83,52,25.73,104.84,15.24,149.68,6.34,186.51,21.8,216.51,56.72Z"/><path class="cls-4" d="M256.1,114c3.42-44,40.45-84.07,84.12-92.22,66-12.34,123.86,39.66,124.39,103.57,0,5.64-.31,11.3-.71,16.93-.26,3.72-2,4.76-6,3.91-13.65-2.86-27.37-5.46-41.16-7.5-5.49-.81-6.1-3.47-5.76-8a50.49,50.49,0,0,0-1.67-17.79C403,90.86,384.16,75.77,362,75.12c-22.67-.67-41.88,12.56-49.77,34.31-.79,2.18-1.41,4.43-2.11,6.65-1.72,2.41.09,5.53-1.6,8l0-.06c-5.21,3.24-11,1.54-16.53,1.83-9.27.48-18.47-1.3-27.77-1.1C257.13,124.85,253.7,121.45,256.1,114Z"/><path class="cls-4" d="M309.92,137.85c4.92,19.41,16.12,33.44,35.51,39.64,22.72,7.27,46.95-2.76,58.9-23.75,1.47-2.59,2.79-5.27,4.18-7.91,13.35-1.87,25.81,3.23,38.65,5.17,4.57.69,10.27-.21,13.42,4.94-7,29.55-24.35,51.42-50.39,66.19-59.45,33.7-134.58.71-151.76-66.31-1.31-5.14-2.72-10.31-2.46-15.72-1.25-3.89.73-5.87,4.26-6,15.5-.45,31-.94,46.43,1.56A6.57,6.57,0,0,1,309.92,137.85Z"/><path class="cls-5" d="M400.8,128c-.05,23.25-18.05,41.82-40.62,41.9-22.87.08-41.63-19.08-41.46-42.36.17-23,18.45-41.74,40.91-41.86C382.75,85.59,400.85,104.2,400.8,128Z"/><path class="cls-6" d="M256.1,114c1.35,7.84,1.35,8,7.89,8,14.89,0,29.66,2.71,44.58,2,1,4.07-1.57,4.33-4.51,4.27q-14.44-.28-28.89-.54c-4.64-.08-9.3,0-13.94-.21-6.59-.27-6.79-.51-6.62-6.82C254.68,118.36,254.66,116,256.1,114Z"/><path class="cls-7" d="M309.92,137.85c-15.07-.4-30.06-2.89-45.19-1.91-3.53.23-7.53-.78-8.76,4.17-1.64-2.44-1.3-5-.58-8.17,16.84-1,33.78,0,50.72.21C309.72,132.21,310.17,134.93,309.92,137.85Z"/><path class="cls-8" d="M460.58,155.94c-14.35-3.41-28.88-5.85-43.43-8.19-2.91-.47-5.76-1.27-8.64-1.92-.18-3.26,1.72-4.08,4.45-3.58,15.05,2.75,30.1,5.49,45.12,8.39C460.79,151.17,463.62,152.35,460.58,155.94Z"/><path class="cls-6" d="M308.54,124c-.49-2.86-.77-5.68,1.6-8C310.39,118.89,310.48,121.66,308.54,124Z"/><path class="cls-4" d="M232.67,141.94c-2.9,41.13-36.16,80.27-77.81,91.56-56,15.2-115-18.35-130.52-74.34a18.12,18.12,0,0,1-.33-3c-.34-1.94.56-3.42,2.33-3.69,15.21-2.34,30.36-5.18,45.7-6.58a9.31,9.31,0,0,1,6.54,1.72c3.84,6.15,7.1,12.63,12.46,17.79,28.32,27.28,70.42,13.17,81.56-14.85l-46.35-.81c-2.58-6.91.17-9.62,7.18-10.18,30-2.42,60-5.16,90.18-4.63C227.94,135,233.47,134.69,232.67,141.94Z"/><path class="cls-4" d="M20.71,140.06c-6.23-54.15,29-103.64,79.05-117,41.17-11,84.94,5.27,106.93,33.71L166,93.94c-8.74-8.45-18.28-14.53-30.17-16.6a51.49,51.49,0,0,0-57.23,33.11c-1.11,3.13-1.81,6.4-2.7,9.61-1,2.58-.76,5.3-.52,7.91.53,5.83-2.19,8.92-7.71,9.51-13.23,1.42-26.36,3.45-39.44,5.88C25,144,22.31,143.25,20.71,140.06Z"/><path class="cls-9" d="M155.81,94.41c-11.73,0-21.26.24-30.77-.1-5.12-.19-7,1.33-6.9,6.66q.44,24.94,0,49.91c-.1,5.45,2,6.71,7,6.57,11.26-.29,22.54-.09,34.16-.09-10.74,17.31-37.71,21.19-56.82,8.7a45,45,0,0,1-12.55-63.2C106.42,78.58,138.56,78.7,155.81,94.41Z"/><path class="cls-10" d="M177.68,101.38c15.3,0,30.6.17,45.89-.09,5.11-.09,7.77,1.11,8.78,6.69,3.49,19.37,3.69,19.34-16.2,19.58-27.93.35-55.75,2.7-83.59,4.72-7.71.57-7.79.74-8-6.88-.13-6,.29-12-.12-18-.34-5,1.67-6.21,6.31-6.14C146.42,101.52,162.05,101.39,177.68,101.38Z"/><path class="cls-11" d="M232.67,141.94c-.75-2.93-2.47-4.43-5.67-4.26-15.47.85-31-1.28-46.46,1.62a35.28,35.28,0,0,1-8.89.45c-13.26-.94-26.25,2.87-39.48,2.16-5.88-.32-6.21,3.55-5.92,7.87-3.74-9.68-2.82-11.93,6.11-12.79,32.31-3.12,64.7-5,97.17-5.31a27.24,27.24,0,0,1,3.86.51C234.17,135.71,234.54,138.9,232.67,141.94Z"/><path class="cls-12" d="M20.71,140.06c2.37,1.49,4.74,1.37,7.54.94,11.71-1.8,23.27-4.58,35.17-5.25,9.09-.5,10-1.79,10.89-11.18.15-1.66.28-3.3,1.62-4.52-.08,5.94,1.78,13-.78,17.51s-10.4,2.29-15.86,3.35C48.56,143,37.67,144.28,26.87,146,22,146.79,20,145,20.71,140.06Z"/><path class="cls-8" d="M78.58,147.65c-13.6.64-27,3.15-40.36,5.4-4.71.79-10.25-1.16-14.21,3.15-1.84-2.55-2.31-5.36,1.4-5.95,16-2.54,32.15-4.69,48.24-7C77,142.79,78.66,144.24,78.58,147.65Z"/><path class="cls-13" d="M396.44,129.9c-.81,19.89-15.43,35-33.9,36-21,1.12-36.56-12.53-39.69-36,5.91,0,11.71,0,17.52,0,2.2,0,3.21,1,4.38,3,9,15.41,21.24,15.68,29.86.58,1.63-2.86,3.3-3.64,6.18-3.58C385.73,130,390.69,129.9,396.44,129.9Z"/><path class="cls-14" d="M323.41,124.87c1.44-18.8,15.35-33.3,33.36-34.9,17.45-1.55,34.54,10.54,39,27.58,1.78,6.78.78,8.15-6.23,8.38-2.32.07-4.65-.13-7,0-4,.3-6.72-.82-8.64-4.88-2.93-6.16-8.21-9.54-15.25-9.13-5.71.33-10.4,3.13-12.55,8.4-2,5-5.35,6.13-10.09,5.59C331.86,125.48,327.47,126.91,323.41,124.87Z"/><path class="cls-15" d="M359.64,140.07c-6.77-.12-11.73-5.26-11.73-12.16,0-7.29,5.52-12.6,12.69-12.21A12.27,12.27,0,0,1,372,128.37,12.11,12.11,0,0,1,359.64,140.07Z"/></g></g></svg>